<svg width="128" height="142" viewBox="0 0 128 142" fill="none" xmlns="http://www.w3.org/2000/svg">
<g id="Frame 84">
<path id="Rectangle 19" opacity="0.32" d="M8.19727 74.3201C8.19727 48.8256 28.8646 28.1582 54.3591 28.1582C79.8536 28.1582 100.521 48.8256 100.521 74.32V79.7801H8.19727V74.3201Z" fill="url(#paint0_linear_409_8228)"/>
<path id="Union" opacity="0.6" fill-rule="evenodd" clip-rule="evenodd" d="M57.2681 44.7536C58.2091 43.8126 59.7348 43.8126 60.6759 44.7536C61.6169 45.6947 61.6169 47.2204 60.6759 48.1614L55.7383 53.099L60.676 58.0366C61.617 58.9777 61.617 60.5034 60.676 61.4444C59.7349 62.3855 58.2092 62.3855 57.2682 61.4444L52.3305 56.5068L47.3929 61.4444C46.4518 62.3855 44.9261 62.3855 43.9851 61.4444C43.044 60.5034 43.044 58.9777 43.9851 58.0366L48.9227 53.099L43.9852 48.1614C43.0441 47.2204 43.0441 45.6947 43.9852 44.7536C44.9262 43.8126 46.4519 43.8126 47.393 44.7536L52.3305 49.6912L57.2681 44.7536Z" fill="#0D1319"/>
<path id="Union_2" fill-rule="evenodd" clip-rule="evenodd" d="M57.0314 4.29417C57.5565 3.76913 58.4077 3.76913 58.9327 4.29417C59.4578 4.81921 59.4578 5.67047 58.9327 6.19551L56.1779 8.95036L58.9328 11.7053C59.4578 12.2303 59.4578 13.0816 58.9328 13.6066C58.4078 14.1317 57.5565 14.1317 57.0315 13.6066L54.2766 10.8517L51.5217 13.6066C50.9966 14.1317 50.1454 14.1317 49.6203 13.6066C49.0953 13.0816 49.0953 12.2303 49.6203 11.7053L52.3752 8.95036L49.6204 6.19551C49.0954 5.67047 49.0954 4.81921 49.6204 4.29417C50.1454 3.76913 50.9967 3.76913 51.5217 4.29417L54.2766 7.04903L57.0314 4.29417Z" fill="#D4D5D5"/>
<path id="Union_3" fill-rule="evenodd" clip-rule="evenodd" d="M23.6224 0.950123C24.3554 0.217147 25.5438 0.217146 26.2768 0.950123C27.0097 1.6831 27.0097 2.87149 26.2768 3.60446L22.4309 7.45035L26.2769 11.2963C27.0098 12.0293 27.0098 13.2177 26.2769 13.9507C25.5439 14.6836 24.3555 14.6836 23.6225 13.9507L19.7766 10.1047L15.9306 13.9507C15.1976 14.6836 14.0093 14.6836 13.2763 13.9507C12.5433 13.2177 12.5433 12.0293 13.2763 11.2963L17.1222 7.45035L13.2764 3.60446C12.5434 2.87149 12.5434 1.6831 13.2764 0.950123C14.0094 0.217146 15.1977 0.217147 15.9307 0.950123L19.7766 4.79601L23.6224 0.950123Z" fill="#D4D5D5"/>
<path id="Union_4" fill-rule="evenodd" clip-rule="evenodd" d="M5.71314 31.1772C6.08223 30.8081 6.68063 30.8081 7.04972 31.1772C7.41881 31.5463 7.4188 32.1447 7.04972 32.5138L5.11315 34.4504L7.04976 36.387C7.41885 36.7561 7.41885 37.3545 7.04976 37.7236C6.68068 38.0927 6.08227 38.0927 5.71318 37.7236L3.77657 35.787L1.83995 37.7236C1.47087 38.0927 0.872462 38.0927 0.503376 37.7236C0.134291 37.3545 0.134291 36.7561 0.503377 36.387L2.43999 34.4504L0.503419 32.5138C0.134334 32.1447 0.134333 31.5463 0.503419 31.1772C0.872504 30.8081 1.47091 30.8081 1.84 31.1772L3.77657 33.1138L5.71314 31.1772Z" fill="#D4D5D5"/>
<path id="Ellipse 3" d="M94.8957 67.2059C94.8957 90.0504 76.3765 108.57 53.532 108.57C30.6875 108.57 12.1684 90.0504 12.1684 67.2059C12.1684 44.3614 30.6875 25.8422 53.532 25.8422C76.3765 25.8422 94.8957 44.3614 94.8957 67.2059Z" stroke="url(#paint1_linear_409_8228)" stroke-width="15.8836"/>
<g id="Ellipse 2">
<path d="M101.837 67.2059C101.837 93.8843 80.2104 115.511 53.532 115.511C26.8537 115.511 5.22656 93.8843 5.22656 67.2059C5.22656 40.5275 26.8537 18.9004 53.532 18.9004C80.2104 18.9004 101.837 40.5275 101.837 67.2059Z" stroke="#0D1319" stroke-width="2"/>
<path d="M101.837 67.2059C101.837 93.8843 80.2104 115.511 53.532 115.511C26.8537 115.511 5.22656 93.8843 5.22656 67.2059C5.22656 40.5275 26.8537 18.9004 53.532 18.9004C80.2104 18.9004 101.837 40.5275 101.837 67.2059Z" stroke="#E8E9E9" stroke-width="2"/>
</g>
<g id="Subtract">
<mask id="path-8-inside-1_409_8228" fill="white">
<path fill-rule="evenodd" clip-rule="evenodd" d="M79.0361 107.29C79.3975 107.821 79.8135 108.325 80.2841 108.796L110.045 138.557C114.101 142.613 120.676 142.613 124.731 138.557C128.787 134.502 128.787 127.927 124.731 123.871L94.9701 94.11C94.5102 93.6501 94.0179 93.2423 93.5005 92.8867C89.7191 98.622 84.7883 103.532 79.0361 107.29Z"/>
</mask>
<path fill-rule="evenodd" clip-rule="evenodd" d="M79.0361 107.29C79.3975 107.821 79.8135 108.325 80.2841 108.796L110.045 138.557C114.101 142.613 120.676 142.613 124.731 138.557C128.787 134.502 128.787 127.927 124.731 123.871L94.9701 94.11C94.5102 93.6501 94.0179 93.2423 93.5005 92.8867C89.7191 98.622 84.7883 103.532 79.0361 107.29Z" fill="#9C27B0"/>
<path d="M80.2841 108.796L81.6983 107.382L80.2841 108.796ZM79.0361 107.29L77.9423 105.616L76.2354 106.731L77.3831 108.416L79.0361 107.29ZM110.045 138.557L108.631 139.971L110.045 138.557ZM124.731 138.557L123.317 137.143L124.731 138.557ZM124.731 123.871L126.146 122.457V122.457L124.731 123.871ZM94.9701 94.11L93.5559 95.5242V95.5242L94.9701 94.11ZM93.5005 92.8867L94.6333 91.2385L92.953 90.0836L91.8307 91.7858L93.5005 92.8867ZM81.6983 107.382C81.3166 107 80.9805 106.592 80.6891 106.164L77.3831 108.416C77.8146 109.05 78.3104 109.651 78.8699 110.21L81.6983 107.382ZM111.46 137.143L81.6983 107.382L78.8699 110.21L108.631 139.971L111.46 137.143ZM123.317 137.143C120.043 140.417 114.734 140.417 111.46 137.143L108.631 139.971C113.468 144.808 121.309 144.808 126.146 139.971L123.317 137.143ZM123.317 125.285C126.592 128.56 126.592 133.869 123.317 137.143L126.146 139.971C130.982 135.135 130.982 127.294 126.146 122.457L123.317 125.285ZM93.5559 95.5242L123.317 125.285L126.146 122.457L96.3843 92.6958L93.5559 95.5242ZM92.3676 94.5349C92.7848 94.8216 93.1828 95.1511 93.5559 95.5242L96.3843 92.6958C95.8375 92.149 95.251 91.663 94.6333 91.2385L92.3676 94.5349ZM91.8307 91.7858C88.2 97.2926 83.4653 102.008 77.9423 105.616L80.1299 108.965C86.1114 105.057 91.2382 99.9514 95.1702 93.9876L91.8307 91.7858Z" fill="white" mask="url(#path-8-inside-1_409_8228)"/>
<path d="M80.2841 108.796L81.6983 107.382L80.2841 108.796ZM79.0361 107.29L77.9423 105.616L76.2354 106.731L77.3831 108.416L79.0361 107.29ZM110.045 138.557L108.631 139.971L110.045 138.557ZM124.731 138.557L123.317 137.143L124.731 138.557ZM124.731 123.871L126.146 122.457V122.457L124.731 123.871ZM94.9701 94.11L93.5559 95.5242V95.5242L94.9701 94.11ZM93.5005 92.8867L94.6333 91.2385L92.953 90.0836L91.8307 91.7858L93.5005 92.8867ZM81.6983 107.382C81.3166 107 80.9805 106.592 80.6891 106.164L77.3831 108.416C77.8146 109.05 78.3104 109.651 78.8699 110.21L81.6983 107.382ZM111.46 137.143L81.6983 107.382L78.8699 110.21L108.631 139.971L111.46 137.143ZM123.317 137.143C120.043 140.417 114.734 140.417 111.46 137.143L108.631 139.971C113.468 144.808 121.309 144.808 126.146 139.971L123.317 137.143ZM123.317 125.285C126.592 128.56 126.592 133.869 123.317 137.143L126.146 139.971C130.982 135.135 130.982 127.294 126.146 122.457L123.317 125.285ZM93.5559 95.5242L123.317 125.285L126.146 122.457L96.3843 92.6958L93.5559 95.5242ZM92.3676 94.5349C92.7848 94.8216 93.1828 95.1511 93.5559 95.5242L96.3843 92.6958C95.8375 92.149 95.251 91.663 94.6333 91.2385L92.3676 94.5349ZM91.8307 91.7858C88.2 97.2926 83.4653 102.008 77.9423 105.616L80.1299 108.965C86.1114 105.057 91.2382 99.9514 95.1702 93.9876L91.8307 91.7858Z" fill="#00060D" fill-opacity="0.09" mask="url(#path-8-inside-1_409_8228)"/>
</g>
</g>
<defs>
<linearGradient id="paint0_linear_409_8228" x1="54.3591" y1="28.1582" x2="54.3591" y2="79.7801" gradientUnits="userSpaceOnUse">
<stop stop-opacity="0"/>
<stop offset="0.3" stop-opacity="0.6"/>
<stop offset="0.6" stop-opacity="0.8"/>
<stop offset="1" stop-opacity="0.7"/>
</linearGradient>
<linearGradient id="paint1_linear_409_8228" x1="53.532" y1="17.9004" x2="53.532" y2="116.511" gradientUnits="userSpaceOnUse">
<stop stop-color="#9C27B0" stop-opacity="0"/>
<stop offset="0.3" stop-color="#9C27B0" stop-opacity="0.6"/>
<stop offset="0.6" stop-color="#9C27B0" stop-opacity="0.8"/>
<stop offset="1" stop-color="#9C27B0"/>
</linearGradient>
</defs>
</svg>
